<svg width="408" height="63" viewBox="0 0 408 63" fill="none" xmlns="http://www.w3.org/2000/svg">
<g clip-path="url(#clip0_300_2881)">
<path d="M406.708 0.81543H209.662V46.5714H406.708V0.81543Z" fill="white"/>
<path d="M396.161 10.7011H394.642V12.3446H396.161C396.687 12.3446 396.975 12.1018 397.03 11.6163V11.4669C397.036 10.9564 396.742 10.7011 396.154 10.7011M394.03 14.953V10.1533H396.142C396.589 10.1533 396.926 10.2218 397.146 10.3588C397.452 10.5517 397.618 10.8879 397.648 11.3797C397.666 11.6723 397.624 11.9089 397.526 12.0832C397.446 12.2263 397.281 12.3882 397.03 12.5812C397.269 12.7368 397.422 12.88 397.477 13.017C397.538 13.1477 397.575 13.4092 397.581 13.8076C397.581 14.1251 397.599 14.3492 397.636 14.4737C397.666 14.6169 397.734 14.7227 397.838 14.7974V14.953H397.103C397.011 14.7165 396.962 14.4488 396.962 14.1437C396.962 13.6893 396.944 13.4154 396.907 13.3158C396.816 13.0356 396.577 12.8925 396.197 12.8925H394.649V14.953H394.043H394.03Z" fill="#009DDD"/>
<path d="M291.219 16.4474L286.377 18.0908C285.937 16.9952 285.398 16.2357 284.767 15.8186C284.155 15.3704 283.286 15.1463 282.16 15.1463C279.913 15.1463 278.787 15.9182 278.787 17.4621C278.787 18.1344 279.044 18.6573 279.558 19.0309C280.072 19.3795 280.984 19.6783 282.307 19.9273C285.49 20.5498 287.687 21.3093 288.912 22.1995C290.895 23.6438 291.887 25.5612 291.887 27.9455C291.887 30.4605 290.969 32.4713 289.132 33.9902C287.296 35.4843 284.841 36.2314 281.756 36.2314C276.497 36.2314 273.204 33.9342 271.888 29.3275L277.171 28.0949C277.826 30.4356 279.509 31.5997 282.196 31.5997C284.884 31.5997 286.047 30.7033 286.047 28.9166C286.047 28.1945 285.741 27.6467 285.129 27.2732C284.541 26.8747 283.427 26.5012 281.792 26.1526C278.634 25.4803 276.412 24.5714 275.114 23.4259C273.816 22.2805 273.167 20.6245 273.167 18.4644C273.167 16.1236 273.975 14.2374 275.591 12.7931C277.232 11.3239 279.356 10.5894 281.976 10.5894C284.425 10.5894 286.377 11.0625 287.847 12.0087C289.316 12.9301 290.436 14.4117 291.219 16.4474Z" fill="#009DDD"/>
<path d="M317.53 15.7003H305.862V20.8175H315.038V25.4803H305.862V30.9274H317.53V35.8579H300.028V10.9629H317.53V15.7003Z" fill="#009DDD"/>
<path d="M331.077 15.4015V21.7451H334.597C336.066 21.7451 337.082 21.5708 337.639 21.2222C338.594 20.6245 339.072 19.6908 339.072 18.4208C339.072 17.4247 338.692 16.6279 337.933 16.0365C337.566 15.7626 337.186 15.5883 336.795 15.5136C336.403 15.4389 335.619 15.4015 334.444 15.4015H331.071H331.077ZM331.077 25.997V35.8516H325.311V10.9629H336.066C338.949 10.9629 341.067 11.5232 342.414 12.6437C344.128 14.0631 344.985 15.9867 344.985 18.427C344.985 21.4401 343.577 23.5878 340.767 24.8827L345.279 35.8516H338.931L335.185 25.997H331.077Z" fill="#009DDD"/>
<path d="M371.295 15.7003H359.628V20.8175H368.804V25.4803H359.628V30.9274H371.295V35.8579H353.794V10.9629H371.295V15.7003Z" fill="#009DDD"/>
<path d="M384.873 30.9274H394.6V35.8579H379.076V10.9629H384.873V30.9274Z" fill="#009DDD"/>
<path d="M117.393 60.2171L115.409 56.7061H116.462L117.846 59.1775L119.253 56.7061H120.294L118.311 60.2171V62.8816H117.393V60.2171Z" fill="#009DDD"/>
<path d="M128.662 56.7061H127.744V62.8816H128.662V56.7061Z" fill="#009DDD"/>
<path d="M137.784 56.7061V62.0038H139.565V62.8816H136.859V56.7061H137.784Z" fill="#009DDD"/>
<path d="M148.092 56.7061V62.0038H149.88V62.8816H147.174V56.7061H148.092Z" fill="#009DDD"/>
<path d="M160.672 60.5037L159.772 58.412L158.835 60.5037H160.672ZM161.045 61.3815H158.45L157.764 62.8818H156.778L159.784 56.3203L162.679 62.8818H161.676L161.039 61.3815H161.045Z" fill="#009DDD"/>
<path d="M171.115 59.5386H171.409C172.279 59.5386 172.713 59.2024 172.713 58.5301C172.713 57.9013 172.291 57.5838 171.446 57.5838H171.122V59.5386H171.115ZM172.254 60.2545L174.127 62.8816H173.007L171.281 60.3541H171.115V62.8816H170.197V56.7061H171.269C171.979 56.7061 172.511 56.8243 172.872 57.0671C173.356 57.3908 173.601 57.8764 173.601 58.5114C173.601 58.9534 173.472 59.3269 173.227 59.6506C172.989 59.9681 172.658 60.1673 172.254 60.2545Z" fill="#009DDD"/>
<path d="M186.272 57.0425V58.1443C185.74 57.6961 185.189 57.472 184.626 57.472C184.007 57.472 183.481 57.6961 183.052 58.1568C182.624 58.605 182.404 59.1591 182.404 59.8127C182.404 60.4664 182.618 61.0266 183.052 61.4686C183.481 61.9044 184.02 62.1285 184.662 62.1285C185.189 62.1285 185.728 61.892 186.272 61.4251V62.5456C185.746 62.8569 185.201 63.0063 184.644 63.0063C183.756 63.0063 183.01 62.695 182.391 62.0849C181.785 61.4624 181.485 60.6967 181.485 59.7878C181.485 58.8789 181.798 58.1755 182.422 57.5467C183.046 56.9117 183.787 56.5942 184.644 56.5942C185.219 56.5942 185.764 56.7436 186.272 57.0487" fill="#009DDD"/>
<path d="M197.352 60.5037L196.452 58.412L195.516 60.5037H197.358H197.352ZM197.725 61.3815H195.13L194.45 62.8818H193.465L196.471 56.3203L199.366 62.8818H198.362L197.725 61.3815Z" fill="#009DDD"/>
<path d="M216.813 62.0038H217.376C218.19 62.0038 218.6 61.6987 218.6 61.0949C218.6 60.491 218.16 60.1424 217.278 60.1424H216.813V62.0038ZM216.813 59.3643H217.094C217.762 59.3643 218.092 59.0654 218.092 58.4554C218.092 57.8453 217.774 57.5651 217.137 57.5651H216.819V59.3643H216.813ZM215.895 62.8816V56.7061H216.801C217.474 56.7061 217.964 56.8119 218.257 57.0173C218.466 57.1667 218.637 57.3722 218.759 57.6274C218.888 57.8889 218.949 58.1628 218.949 58.4491C218.949 58.8849 218.784 59.2522 218.459 59.551C218.778 59.6693 219.035 59.8685 219.219 60.1424C219.408 60.4226 219.5 60.74 219.5 61.0949C219.5 61.6427 219.298 62.0847 218.894 62.4271C218.692 62.5952 218.478 62.7072 218.245 62.7757C218.013 62.838 217.694 62.8691 217.29 62.8691H215.895V62.8816Z" fill="#009DDD"/>
<path d="M230.751 57.5838H228.321V59.0654H230.678V59.9494H228.321V62.0038H230.751V62.8816H227.396V56.7061H230.751V57.5838Z" fill="#009DDD"/>
<path d="M239.615 59.5386H239.903C240.772 59.5386 241.207 59.2024 241.207 58.5301C241.207 57.9013 240.785 57.5838 239.94 57.5838H239.615V59.5386ZM240.754 60.2545L242.633 62.8816H241.513L239.787 60.3541H239.622V62.8816H238.697V56.7061H239.775C240.485 56.7061 241.017 56.8243 241.372 57.0671C241.862 57.3908 242.101 57.8764 242.101 58.5114C242.101 58.9534 241.978 59.3269 241.727 59.6506C241.483 59.9681 241.158 60.1673 240.754 60.2545Z" fill="#009DDD"/>
<path d="M253.468 60.5037L252.568 58.412L251.632 60.5037H253.468ZM253.842 61.3815H251.246L250.567 62.8818H249.581L252.587 56.3203L255.482 62.8818H254.478L253.842 61.3815Z" fill="#009DDD"/>
<path d="M263.911 62.0038H264.475C265.289 62.0038 265.699 61.6987 265.699 61.0949C265.699 60.491 265.258 60.1424 264.377 60.1424H263.911V62.0038ZM263.911 59.3643H264.193C264.854 59.3643 265.185 59.0654 265.185 58.4554C265.185 57.8453 264.866 57.5651 264.224 57.5651H263.905V59.3643H263.911ZM262.993 62.8816V56.7061H263.905C264.579 56.7061 265.068 56.8119 265.362 57.0173C265.576 57.1667 265.742 57.3722 265.864 57.6274C265.993 57.8889 266.054 58.1628 266.054 58.4491C266.054 58.8849 265.889 59.2522 265.564 59.551C265.889 59.6693 266.14 59.8685 266.323 60.1424C266.513 60.4226 266.605 60.74 266.605 61.0949C266.605 61.6427 266.403 62.0847 265.999 62.4271C265.797 62.5952 265.583 62.7072 265.35 62.7757C265.117 62.838 264.805 62.8691 264.395 62.8691H262.999L262.993 62.8816Z" fill="#009DDD"/>
<path d="M277.844 57.5838H275.413V59.0654H277.776V59.9494H275.413V62.0038H277.844V62.8816H274.495V56.7061H277.844V57.5838Z" fill="#009DDD"/>
<path d="M286.714 59.5386H287.001C287.871 59.5386 288.305 59.2024 288.305 58.5301C288.305 57.9013 287.883 57.5838 287.038 57.5838H286.714V59.5386ZM287.852 60.2545L289.725 62.8816H288.605L286.873 60.3541H286.708V62.8816H285.783V56.7061H286.861C287.571 56.7061 288.103 56.8243 288.464 57.0671C288.948 57.3908 289.193 57.8764 289.193 58.5114C289.193 58.9534 289.07 59.3269 288.819 59.6506C288.575 59.9681 288.25 60.1673 287.846 60.2545" fill="#009DDD"/>
<path d="M405.992 2.03567H210.587V45.3886H405.992V2.03567ZM408 47.4305H208.585V0H408V47.4305Z" fill="#009DDD"/>
<path d="M199.415 0H0V47.4305H199.415V0Z" fill="#C7C8CA"/>
<path d="M183.94 14.1315V9.33183H186.052C186.499 9.33183 186.836 9.40031 187.056 9.53727C187.362 9.73025 187.527 10.0664 187.558 10.5582C187.576 10.8508 187.533 11.0874 187.436 11.2617C187.356 11.3986 187.185 11.5667 186.934 11.7597C187.172 11.9091 187.325 12.0585 187.38 12.1955C187.442 12.3262 187.478 12.5877 187.484 12.9861C187.484 13.3098 187.503 13.5277 187.533 13.6522C187.564 13.7954 187.631 13.9012 187.735 13.9759V14.1315H187.007C186.909 13.895 186.866 13.6211 186.866 13.3222C186.866 12.8678 186.848 12.5939 186.811 12.4943C186.713 12.2141 186.481 12.071 186.101 12.071H184.552V14.1315H183.94ZM186.064 9.87966H184.546V11.5231H186.07C186.597 11.5231 186.885 11.2804 186.94 10.7948C186.94 10.7388 186.946 10.6889 186.946 10.6391C186.946 10.1287 186.652 9.87344 186.064 9.87344M181.877 11.7286C181.877 9.51859 183.64 7.73193 185.807 7.73193C187.974 7.73193 189.737 9.51859 189.737 11.7286C189.737 13.9386 187.98 15.7252 185.807 15.7252C183.634 15.7252 181.877 13.9323 181.877 11.7286ZM182.667 11.7286C182.667 13.4966 184.075 14.9222 185.807 14.9222C187.54 14.9222 188.948 13.4903 188.948 11.7286C188.948 9.96682 187.54 8.535 185.807 8.535C184.075 8.535 182.667 9.96682 182.667 11.7286ZM164.749 7.73193L177.8 34.2642H185.813V39.6988H175.125L172.426 34.2642H157.067L154.373 39.6988H149.029L164.743 7.73193H164.749ZM161.768 25.9534C161.768 27.628 163.102 28.9913 164.749 28.9913C166.396 28.9913 167.736 27.6342 167.736 25.9534C167.736 24.2725 166.396 22.9154 164.749 22.9154C163.102 22.9154 161.768 24.2788 161.768 25.9534ZM136.462 34.2642H143.691V39.6988H136.462V34.2642ZM115.397 7.73193H143.691V13.1666H131.117L120.766 34.2642H131.117V39.6988H99.6834L115.403 7.73193H115.397ZM87.1036 34.2642H94.3331V39.6988H87.1036V34.2642ZM66.0394 7.73193H94.327V13.1666H81.7534L76.8929 23.2391H81.7534V28.6738H74.1933L71.4019 34.2704H81.7534V39.7051H50.3193L66.0394 7.73816V7.73193Z" fill="#009DDD"/>
<path d="M391.962 12.5313C391.962 10.3213 393.719 8.53467 395.892 8.53467C398.065 8.53467 399.822 10.3213 399.822 12.5313C399.822 14.7413 398.059 16.5279 395.892 16.5279C393.725 16.5279 391.962 14.7413 391.962 12.5313ZM392.745 12.5313C392.745 14.2931 394.153 15.7249 395.892 15.7249C397.63 15.7249 399.038 14.2931 399.038 12.5313C399.038 10.7695 397.63 9.33151 395.892 9.33151C394.153 9.33151 392.745 10.7633 392.745 12.5313Z" fill="#009DDD"/>
</g>
<defs>
<clipPath id="clip0_300_2881">
<rect width="408" height="63" fill="white"/>
</clipPath>
</defs>
</svg>
