<svg xmlns:xlink="http://www.w3.org/1999/xlink" class="logo-dark" width="114" height="56" viewBox="0 0 114 56" fill="none" xmlns="http://www.w3.org/2000/svg">
                            <path fill-rule="evenodd" clip-rule="evenodd" d="M45.3345 10.5H37.3768L26.6584 26.2783H26.5688V10.5H19.8979V44.115H26.5688V27.6217H26.6584L37.2409 44.115H45.5583L33.8184 26.6367L45.3345 10.5ZM63.9194 41.1083H64.0072V44.1033H70.1873C70.0132 43.255 69.8789 42.45 69.8789 41.2433V27.9217C69.8789 22.6483 65.1646 20.5 59.5152 20.5C51.5128 20.5 49.0206 25.0167 48.8001 28.5483H54.9353C55.068 26.4933 56.6267 25.1533 59.2516 25.1533C62.0522 25.1533 63.7403 26.4933 63.7403 29.22V30.2917L57.8289 30.65C48.8879 31.185 48.087 35.2533 48.087 37.71C48.087 42.94 52.4895 44.7283 56.0927 44.7283C58.7591 44.7283 61.7836 43.925 63.9194 41.1083ZM58.4042 34.5817L63.7403 34.0883V36.195C63.7403 38.9633 60.4952 40.08 58.4938 40.08C56.3597 40.08 54.4909 39.4567 54.4909 37.4C54.4909 35.745 55.4693 34.8517 58.4042 34.5817ZM74.618 44.115H81.0235V10.5H74.618V44.115ZM96.5756 39.8133C93.1481 39.8133 91.5049 37.13 91.2379 34.4517H107.961V32.6633C107.961 25.2417 103.157 20.5 96.2655 20.5C89.3708 20.5 84.567 25.2417 84.567 32.6633C84.567 39.9917 89.3708 44.7283 96.2655 44.7283C101.645 44.7283 105.827 42.2733 107.382 37.5783L101.154 37.0867C100.268 38.875 98.5322 39.8133 96.5756 39.8133ZM96.5756 25.42C99.6416 25.42 101.335 28.1017 101.557 30.3367H91.2379C91.5944 27.7467 93.241 25.42 96.5756 25.42Z" fill="#221F44"></path>
                            <path fill-rule="evenodd" clip-rule="evenodd" d="M13.9105 10.5H11.1463V12.335H8.36221V10.5H5.57812V12.335H2.79238V10.5H0.00829091L0 24.4633H13.9105V10.5Z" fill="#E94034"></path>
                        </svg>